<mxfile host="app.diagrams.net" modified="2021-05-05T08:56:25.696Z" agent="5.0 (Windows NT 10.0; Win64; x64) AppleWebKit/537.36 (KHTML, like Gecko) Chrome/90.0.4430.93 Safari/537.36" etag="3B37qTylsJQSXob2kpvA" version="14.6.10" type="github">
  <diagram id="zB8R7Zw_cQIM1Ui4Spy5" name="Page-1">
    <mxGraphModel dx="1422" dy="857" grid="1" gridSize="10" guides="1" tooltips="1" connect="1" arrows="1" fold="1" page="1" pageScale="1" pageWidth="827" pageHeight="1169" math="0" shadow="0">
      <root>
        <mxCell id="0" />
        <mxCell id="1" parent="0" />
        <mxCell id="2p4MHbx4L3xfGXjhqvhW-1" value="&lt;font style=&quot;font-size: 16px;&quot;&gt;&lt;span style=&quot;color: rgb(0, 0, 0); font-family: helvetica; font-style: normal; font-weight: 400; letter-spacing: normal; text-align: center; text-indent: 0px; text-transform: none; word-spacing: 0px; background-color: rgb(248, 249, 250); display: inline; float: none; font-size: 16px;&quot;&gt;Работает операция Apply.To(ojb)&lt;/span&gt;&lt;br style=&quot;color: rgb(0, 0, 0); font-family: helvetica; font-style: normal; font-weight: 400; letter-spacing: normal; text-align: center; text-indent: 0px; text-transform: none; word-spacing: 0px; background-color: rgb(248, 249, 250); font-size: 16px;&quot;&gt;&lt;span style=&quot;color: rgb(0, 0, 0); font-family: helvetica; font-style: normal; font-weight: 400; letter-spacing: normal; text-align: center; text-indent: 0px; text-transform: none; word-spacing: 0px; background-color: rgb(248, 249, 250); display: inline; float: none; font-size: 16px;&quot;&gt;для System.Text.Json&lt;/span&gt;&lt;br style=&quot;font-size: 16px;&quot;&gt;&lt;/font&gt;" style="rounded=0;whiteSpace=wrap;html=1;fontSize=16;" vertex="1" parent="1">
          <mxGeometry x="260" y="550" width="250" height="150" as="geometry" />
        </mxCell>
        <mxCell id="2p4MHbx4L3xfGXjhqvhW-2" value="&lt;font style=&quot;font-size: 16px;&quot;&gt;&lt;span style=&quot;color: rgb(0, 0, 0); font-family: helvetica; font-style: normal; font-weight: 400; letter-spacing: normal; text-align: center; text-indent: 0px; text-transform: none; word-spacing: 0px; background-color: rgb(248, 249, 250); display: inline; float: none; font-size: 16px;&quot;&gt;Работает десериализация в JsonPatchDocument из текста для кодов типа Code&amp;lt;Mcc&amp;gt;&lt;/span&gt;&lt;/font&gt;" style="rounded=0;whiteSpace=wrap;html=1;fontSize=16;" vertex="1" parent="1">
          <mxGeometry x="260" y="40" width="250" height="150" as="geometry" />
        </mxCell>
        <mxCell id="2p4MHbx4L3xfGXjhqvhW-3" value="JsonPatchDocumentConverter : JsonConverterFactory&lt;br style=&quot;font-size: 16px;&quot;&gt;конвертор-фабрика для дженерик типа JsonPatchDocument" style="rounded=1;whiteSpace=wrap;html=1;fontSize=16;" vertex="1" parent="1">
          <mxGeometry x="169" y="290" width="490" height="60" as="geometry" />
        </mxCell>
        <mxCell id="2p4MHbx4L3xfGXjhqvhW-4" value="JsonSimplePatchDocumentConverter : JsonConverter&amp;lt;JsonPatchDocument&amp;gt;, IJsonPatchOperationsWriter&lt;br style=&quot;font-size: 16px;&quot;&gt;простой конвертор для типа JsonPatchDocument" style="rounded=1;whiteSpace=wrap;html=1;fontSize=16;" vertex="1" parent="1">
          <mxGeometry x="169" y="220" width="490" height="60" as="geometry" />
        </mxCell>
        <mxCell id="2p4MHbx4L3xfGXjhqvhW-5" value="JsonPatchExtendedOperationConverter : JsonConverterFactory&lt;br style=&quot;font-size: 16px;&quot;&gt;конвертор-фабрика для дженерик типа ExtendedOperation" style="rounded=1;whiteSpace=wrap;html=1;fontSize=16;" vertex="1" parent="1">
          <mxGeometry x="169" y="470" width="490" height="60" as="geometry" />
        </mxCell>
        <mxCell id="2p4MHbx4L3xfGXjhqvhW-6" value="JsonSimpleExtendedOperationConverter : JsonConverter&amp;lt;ExtendedOperation&amp;gt;, IJsonPatchOperationsWriter&lt;br style=&quot;font-size: 16px;&quot;&gt;простой конвертор для типа ExtendedOperation" style="rounded=1;whiteSpace=wrap;html=1;fontSize=16;" vertex="1" parent="1">
          <mxGeometry x="169" y="400" width="490" height="60" as="geometry" />
        </mxCell>
      </root>
    </mxGraphModel>
  </diagram>
</mxfile>
